<?xml version="1.0" encoding="utf-8"?>
<!-- Generator: Adobe Illustrator 18.1.1, SVG Export Plug-In . SVG Version: 6.00 Build 0)  -->
<svg version="1.1" id="Layer_1" xmlns="http://www.w3.org/2000/svg" xmlns:xlink="http://www.w3.org/1999/xlink" x="0px" y="0px"
	 viewBox="0 0 105 105" enable-background="new 0 0 105 105" xml:space="preserve">
<path d="M96.3,78.7c0,0-11.9,24.2-44.2,24.7c0,0-22,0.6-35.7-14.7l5.6-5.6c0,0,13.4,15,34.4,12.4c0,0,29.9-3.7,37.4-29.5
	c0,0,1.9-7.7,2.1-9l-21.6,0.5C77.3,49,72.1,41,72.1,41c-4.3-5.5-16.3-4-16.3-4v1.8l-9.4-9.2c0,0,22.2-4.3,32.6,3.8
	c0,0,6.4,3.9,7.5,16.3h16.9C103.5,49.7,105.4,65.6,96.3,78.7z"/>
<rect x="26.1" y="21.3" width="10.9" height="20.9"/>
<path d="M42.7,49.7l10.9,7.5H39.3c0,0,2.1,16.9-12.5,18.5c0,0-5.4,1-12-1l1.4-8.4c0,0,8.7,2.3,11.5-1.4c0,0,2.1-2.9,2-7.9H1.8
	c0,0-1.7-8,1.6-19c0,0,5.7-22.6,30.2-33.2c0,0,30.6-12.4,54.9,11.1l-5.3,5.4c0,0-15.1-15-40-10.8c0,0-17.6,2.7-28.1,21.2
	c0,0-4.9,9.1-5.5,17.9L42.7,49.7z"/>
<path d="M45.5,62.7v17.7c0,0,18.3,3.2,29.1-2.3c0,0,8.9-4.3,11.3-15.5H74.4c0,0-2.1,11.9-18.4,10.1V62.7H45.5z"/>
<polygon points="46.4,29.7 55.8,38.8 55.8,52.3 46.4,45 "/>
</svg>
