<?xml version="1.0" encoding="utf-8"?>
<!-- Generator: Adobe Illustrator 18.1.1, SVG Export Plug-In . SVG Version: 6.00 Build 0)  -->
<svg version="1.1" id="Layer_1" xmlns="http://www.w3.org/2000/svg" xmlns:xlink="http://www.w3.org/1999/xlink" x="0px" y="0px"
	 viewBox="0 0 612 792" enable-background="new 0 0 612 792" xml:space="preserve">
<rect x="163.7" y="232.1" width="66.4" height="131.9"/>
<path d="M603.2,413c0,8.4-0.4,16.8-1,25c-7.5,90.7-55.8,169.8-126.4,219h-0.1c-40.4,27.4-96.5,50.5-171.5,51.7
	c0,0-55,1.5-115.4-22.5c0,0,0,0-0.1,0c-33.5-14.4-63.8-34.8-89.6-59.8H99c-1-1.1-2-2.2-3-3.3l32.6-32.6
	c1.7,1.8,79.4,87.2,200.5,72.3c0,0,5.3-0.7,14.3-2.5h0.1c39.8-6,76.6-21.4,108-43.9l0,0c56.7-40.7,95.7-104.6,103.1-177.8
	c0-0.1,0-0.1,0-0.2h-17.9V438h-84.1c1.1-6.5,1.7-13.2,1.7-20c0-7.9-0.8-15.6-2.3-23c-2.4-11.9-6.5-23.2-12.3-33.7
	C418.4,321.9,375,295,325.1,295v129.1l-60.8-60.8V230.4c112.2,0,207.2,55,239.3,131c4.5,10.6,7.8,21.6,9.7,33c0,0.2,0.1,0.5,0.1,0.7
	h41.9l8.3,0.1l39.1,0.7C603,401.5,603.2,407.2,603.2,413z"/>
<path d="M517.8,206.6L484.4,240c-38.3-40-89.8-67.2-147.4-74.8c-0.1,0-0.3,0-0.5-0.1c-7.9-1-15.9-1.7-24-2
	c-19.4-0.8-40.2,0.4-62.3,4.1c0,0-6.9,1.1-18.2,4.5c-15.8,4.8-40.3,14.3-66.4,32.3c-11.8,8.1-24,17.9-35.8,29.7
	c-38,36.9-64.3,85.8-72.8,140.6c-1.3,6.9-2.2,13.9-2.7,20.9h0.3l111,0.3l66.4,0.2h15.3l46.1,43.7h-62.9
	C219.9,546.6,157,580.7,76.4,580.7c-4.6,0-9.4-0.2-14.3-0.5c-13-18.7-24-38.8-32.8-60.1c11.9,3.1,26.3,5.3,41.8,5.3
	c51.1,0,84.2-19.3,92.5-87.2H9c0,0-1.3-5.9-2-16.4c-0.1-2.9-0.1-5.8-0.1-8.8c0-114.2,64.4-213.3,158.9-263.1
	c20.8-11,43-19.5,66.4-25.3c23.1-5.7,47.2-8.8,72-8.8c81,0,154.5,32.4,208.1,85.1C514,202.7,516,204.7,517.8,206.6z"/>
<path d="M505.1,471c-12,30.5-34.1,57.8-63.4,79.7c-45.4,34-108.2,55-177.5,55V471H325v70c35.7,0,68-13.8,91.4-36
	c10.3-9.8,18.9-21.3,25.3-34H505.1z"/>
<polygon points="563.6,395 563.6,395.1 555.3,395 "/>
</svg>
