<svg id="eJl8fiI0GSL1" xmlns="http://www.w3.org/2000/svg" xmlns:xlink="http://www.w3.org/1999/xlink" viewBox="0 0 612 792" shape-rendering="geometricPrecision" text-rendering="geometricPrecision"><path id="eJl8fiI0GSL2" d="M603.2,413c0,8.4-.4,16.8-1,25-7.5,90.7-55.8,169.8-126.4,219c0,0-.1,0-.1,0-40.4,27.4-96.5,50.5-171.5,51.7c0,0-55,1.5-115.4-22.5c0,0,0,0-.1,0-33.5-14.4-63.8-34.8-89.6-59.8h-.1c-1-1.1-2-2.2-3-3.3l32.6-32.6c1.7,1.8,79.4,87.2,200.5,72.3c0,0,5.3-.7,14.3-2.5c0,0,.1,0,.1,0c39.8-6,76.6-21.4,108-43.9c0,0,0,0,0,0c56.7-40.7,95.7-104.6,103.1-177.8c0-.1,0-.1,0-.2h-17.9v-.4h-84.1c1.1-6.5,1.7-13.2,1.7-20c0-7.9-.8-15.6-2.3-23-2.4-11.9-6.5-23.2-12.3-33.7C418.4,321.9,375,295,325.1,295v129.1l-60.8-60.8v-132.9c112.2,0,207.2,55,239.3,131c4.5,10.6,7.8,21.6,9.7,33c0,.2.1.5.1.7h41.9l8.3.1l39.1.7c.3,5.6.5,11.3.5,17.1Z" transform="translate(409.1-360.45)"/><rect id="eJl8fiI0GSL3" width="66.4" height="121.8" rx="0" ry="0" transform="matrix(1 0 0 1.004105 167.7 231.850006)" opacity="0"/><path id="eJl8fiI0GSL4" d="M517.8,206.6L484.4,240c-38.3-40-89.8-67.2-147.4-74.8-.1,0-.3,0-.5-.1-7.9-1-15.9-1.7-24-2-19.4-.8-40.2.4-62.3,4.1c0,0-6.9,1.1-18.2,4.5-15.8,4.8-40.3,14.3-66.4,32.3-11.8,8.1-24,17.9-35.8,29.7-38,36.9-64.3,85.8-72.8,140.6-1.3,6.9-2.2,13.9-2.7,20.9h.3l111,.3l66.4.2h15.3l46.1,43.7h-62.9C219.9,546.6,157,580.7,76.4,580.7c-4.6,0-9.4-.2-14.3-.5-13-18.7-24-38.8-32.8-60.1c11.9,3.1,26.3,5.3,41.8,5.3c51.1,0,84.2-19.3,92.5-87.2h-154.6c0,0-1.3-5.9-2-16.4-.1-2.9-.1-5.8-.1-8.8c0-114.2,64.4-213.3,158.9-263.1c20.8-11,43-19.5,66.4-25.3c23.1-5.7,47.2-8.8,72-8.8c81,0,154.5,32.4,208.1,85.1c1.7,1.8,3.7,3.8,5.5,5.7Z" transform="translate(-517.8 0)"/><path id="eJl8fiI0GSL5" d="M505.1,471c-12,30.5-34.1,57.8-63.4,79.7-45.4,34-108.2,55-177.5,55v-134.7h60.8v70c35.7,0,68-13.8,91.4-36c10.3-9.8,18.9-21.3,25.3-34h63.4Z" opacity="0"/><polygon points="563.6,395 563.6,395.1 555.3,395"/><script><![CDATA[]]></script></svg>